<?xml version="1.0"?>
<svg xmlns="http://www.w3.org/2000/svg" viewBox="0 0 64 64"><g data-name="01 Cycling" id="_01_Cycling"><g><path d="M13,58A13,13,0,1,1,26,45,13.014,13.014,0,0,1,13,58Zm0-24A11,11,0,1,0,24,45,11.013,11.013,0,0,0,13,34Z"/><path d="M51,58A13,13,0,1,1,64,45,13.014,13.014,0,0,1,51,58Zm0-24A11,11,0,1,0,62,45,11.013,11.013,0,0,0,51,34Z"/><path d="M19.334,15.7A1.01,1.01,0,0,1,19,15.637,5.989,5.989,0,0,1,21,4h9a1,1,0,0,1,.781,1.624l-4,5a1,1,0,1,1-1.562-1.248L27.919,6H21a3.988,3.988,0,0,0-1.331,7.752,1,1,0,0,1-.335,1.943Z"/><path d="M51,53a8,8,0,1,1,4.058-14.884,1,1,0,1,1-1.018,1.721,6.023,6.023,0,1,0,2.123,2.123,1,1,0,1,1,1.721-1.018A7.986,7.986,0,0,1,51,53Z"/><path d="M13,53a8,8,0,1,1,4.058-14.884,1,1,0,1,1-1.018,1.721,6.023,6.023,0,1,0,2.123,2.123,1,1,0,1,1,1.721-1.018A7.986,7.986,0,0,1,13,53Z"/><path d="M36,54a.994.994,0,0,1-.351-.064C35.3,53.8,27,50.537,27,37a20.341,20.341,0,0,1,3.722-10.947l-3.569-4.109c-1.914,2.878-7.6,9.352-18.447,6.012a1,1,0,0,1-.022-1.905c8.017-2.672,10.4-6.674,12.143-9.6a9.622,9.622,0,0,1,2.618-3.286c2.678-1.785,6.345-1.653,10.325.374C39.482,16.451,44.455,22.5,44.628,26.75a4.344,4.344,0,0,1-2.1,4.1c-.445.275-1.028.58-1.7.934-1.826.958-4.327,2.269-5.752,3.878a1,1,0,0,1-1.5-1.326c1.668-1.884,4.357-3.294,6.32-4.323.63-.331,1.181-.618,1.581-.865a2.387,2.387,0,0,0,1.155-2.317c-.143-3.492-4.8-8.977-9.767-11.507-1.916-.976-5.542-2.336-8.308-.493a8.3,8.3,0,0,0-2.01,2.645,20.5,20.5,0,0,1-10.132,9.267,13.014,13.014,0,0,0,13.681-6.925,1,1,0,0,1,1.661-.232l5,5.757a1,1,0,0,1,.027,1.28C32.744,26.671,29,31.437,29,37c0,7.678,2.9,11.654,5.056,13.549A42.757,42.757,0,0,1,32,38a1,1,0,0,1,2,0,41.978,41.978,0,0,0,2.919,14.606A1,1,0,0,1,36,54Z"/></g></g></svg>
