<svg id="_2_Handlebar_repair" viewBox="0 0 64 64" xmlns="http://www.w3.org/2000/svg" data-name="02 Handlebar repair"><path d="m61 36h-9c0-.552-.448-1-1-1s-1 .448-1 1v1h-4.528c-2.669 0-5.068 1.482-6.261 3.869l-1.789 3.579c-.17.341-.513.552-.894.552h-9.056c-.381 0-.724-.212-.894-.553l-1.789-3.578c-1.193-2.387-3.592-3.87-6.261-3.87h-4.528v-1c0-.552-.448-1-1-1s-1 .448-1 1h-9c-1.654 0-3 1.346-3 3v2c0 1.654 1.346 3 3 3h9c0 .552.448 1 1 1s1-.448 1-1v-5h4.528c1.907 0 3.62 1.059 4.472 2.764l1.789 3.577c.511 1.023 1.539 1.659 2.683 1.659h9.056c1.144 0 2.172-.635 2.683-1.658l1.789-3.579c.852-1.705 2.566-2.764 4.472-2.764h4.528v2h-4.529c-1.144 0-2.171.635-2.682 1.658l-1.789 3.579c-.852 1.705-2.565 2.764-4.471 2.764h-.529c-1.654 0-3 1.346-3 3v3h-2v-3c0-1.654-1.346-3-3-3h-.528c-1.906 0-3.62-1.059-4.472-2.764l-1.789-3.578c-.512-1.023-1.54-1.658-2.683-1.658h-1.528c-.552 0-1 .448-1 1s.448 1 1 1h1.528c.381 0 .724.212.894.553l1.789 3.578c1.194 2.387 3.593 3.869 6.261 3.869h.528c.551 0 1 .449 1 1v4c0 .552.448 1 1 1h4c.552 0 1-.448 1-1v-4c0-.551.449-1 1-1h.529c2.668 0 5.067-1.482 6.26-3.869l1.789-3.579c.17-.34.512-.552.893-.552h4.529v1c0 .552.448 1 1 1s1-.448 1-1h9c1.654 0 3-1.346 3-3v-2c0-1.654-1.346-3-3-3zm-58 6c-.551 0-1-.449-1-1v-2c0-.551.449-1 1-1h9v4zm59-1c0 .551-.449 1-1 1h-9v-4h9c.551 0 1 .449 1 1z"/><path d="m32 35c7.72 0 14-6.28 14-14s-6.28-14-14-14-14 6.28-14 14 6.28 14 14 14zm0-26c6.617 0 12 5.383 12 12s-5.383 12-12 12-12-5.383-12-12 5.383-12 12-12z"/><path d="m24.65 25.521 2.527-2.527c.273-.273.364-.678.235-1.042-.772-2.174-.221-4.629 1.403-6.254 1.526-1.525 3.76-2.088 5.792-1.55l-2.257 2.257c-1.169 1.17-1.169 3.073 0 4.243 1.17 1.169 3.073 1.167 4.243 0l2.257-2.257c.537 2.032-.024 4.267-1.55 5.792-1.625 1.625-4.079 2.176-6.254 1.403-.364-.129-.769-.039-1.042.235l-2.527 2.527c-.391.391-.391 1.023 0 1.414.195.195.451.293.707.293s.512-.098.707-.293l2.101-2.101c2.735.726 5.706-.05 7.721-2.065 2.483-2.482 3.05-6.373 1.379-9.461-.15-.277-.423-.468-.735-.514-.312-.044-.627.06-.851.283l-3.328 3.328c-.389.39-1.025.391-1.414 0-.39-.39-.39-1.024 0-1.415l3.328-3.328c.223-.223.328-.539.283-.851-.046-.312-.236-.585-.514-.735-3.088-1.672-6.979-1.104-9.461 1.379-2.015 2.015-2.792 4.985-2.065 7.721l-2.101 2.101c-.391.391-.391 1.023 0 1.414s1.023.391 1.414 0z"/></svg>