<?xml version="1.0"?>
<svg xmlns="http://www.w3.org/2000/svg" viewBox="0 0 64 64"><g data-name="11 GPS Tracking" id="_11_GPS_Tracking"><g><path d="M45,41a6.958,6.958,0,0,0-3.356.859l-4.371-5.828L38.706,32H40a1,1,0,0,0,0-2H36a1,1,0,0,0,0,2h.583l-1.066,3H24.649l1.294-3.667A1,1,0,0,0,25,30H20a3,3,0,0,0,0,6,1,1,0,0,0,0-2,1,1,0,0,1,0-2h3.586l-3.224,9.135a7.019,7.019,0,1,0,1.885.669l1.7-4.815c.018,0,.034.011.053.011h2.5l2.7,3.6a1,1,0,0,0,.8.4h3.385l-1.423,4a2.966,2.966,0,0,0-1.184.262l-5.015-5.913a1,1,0,1,0-1.526,1.294l5.1,6.008A2.96,2.96,0,0,0,29,48a3,3,0,1,0,4.852-2.342l2.618-7.365,3.575,4.767A6.987,6.987,0,0,0,38.08,47H37a1,1,0,0,0,0,2h1.08A7,7,0,1,0,45,41ZM24,48a5,5,0,1,1-5-5,4.91,4.91,0,0,1,.68.069l-1.623,4.6a1,1,0,0,0,1.886.666l1.624-4.6A4.985,4.985,0,0,1,24,48Zm10-9H30.5L29,37h5.806l-.717,2.018A.876.876,0,0,0,34,39ZM32,49a1,1,0,1,1,1-1A1,1,0,0,1,32,49Zm9.274-4.3L43,47H40.1A4.971,4.971,0,0,1,41.274,44.7ZM45,53a5.009,5.009,0,0,1-4.9-4H45a1,1,0,0,0,.8-1.6l-2.929-3.906A4.941,4.941,0,0,1,45,43a5,5,0,0,1,0,10Z"/><path d="M32,64C17.457,64,2,60.5,2,54c0-2.64,2.651-4.993,7.667-6.8a1,1,0,1,1,.679,1.881C6.313,50.534,4,52.328,4,54c0,3.784,11.5,8,28,8s28-4.216,28-8c0-1.672-2.313-3.466-6.346-4.922a1,1,0,0,1,.679-1.881C59.349,49.007,62,51.36,62,54,62,60.5,46.543,64,32,64Z"/><path d="M32,28a1,1,0,0,1-.588-.191C30.946,27.47,20,19.424,20,12a12,12,0,0,1,24,0c0,7.424-10.946,15.47-11.412,15.809A1,1,0,0,1,32,28ZM32,2A10.011,10.011,0,0,0,22,12c0,5.525,7.773,12,10,13.742C34.226,24,42,17.519,42,12A10.011,10.011,0,0,0,32,2Z"/><path d="M32,10a3,3,0,1,1,3-3A3,3,0,0,1,32,10Zm0-4a1,1,0,1,0,1,1A1,1,0,0,0,32,6Z"/></g></g></svg>
